<?xml version="1.0" standalone="no"?>
<!DOCTYPE svg PUBLIC "-//W3C//DTD SVG 20010904//EN"
 "http://www.w3.org/TR/2001/REC-SVG-20010904/DTD/svg10.dtd">
<svg version="1.0" xmlns="http://www.w3.org/2000/svg"
 width="842.000000pt" height="842.000000pt" viewBox="0 0 842.000000 842.000000"
 preserveAspectRatio="xMidYMid meet">
<metadata>
Created by potrace 1.11, written by Peter Selinger 2001-2013
</metadata>
<g transform="translate(0.000000,842.000000) scale(0.100000,-0.100000)"
fill="#000000" stroke="none">
<path d="M4147 6934 c-1 -1 -54 -4 -117 -8 -63 -4 -126 -8 -140 -10 -128 -18
-157 -22 -220 -36 -25 -5 -56 -12 -70 -14 -133 -22 -413 -114 -620 -203 -423
-183 -929 -520 -1330 -888 -101 -92 -457 -451 -542 -545 -212 -237 -490 -591
-642 -818 -137 -206 -130 -232 174 -637 506 -674 1114 -1265 1700 -1651 308
-203 628 -365 919 -464 66 -23 128 -43 138 -45 10 -3 43 -12 73 -20 80 -23
266 -62 330 -70 30 -3 62 -8 70 -10 70 -18 394 -25 555 -12 96 7 119 10 270
33 80 12 323 73 425 107 328 109 700 295 1014 508 172 117 485 360 575 447 10
10 55 51 100 92 96 86 384 377 491 495 280 309 726 898 732 966 8 104 2 137
-41 204 -90 140 -316 439 -481 635 -104 124 -119 141 -215 249 -78 87 -440
448 -540 538 -271 245 -598 488 -885 658 -105 62 -420 225 -435 225 -4 0 -35
13 -70 29 -217 101 -611 203 -885 231 -85 8 -327 19 -333 14z m268 -458 c50
-5 92 -9 95 -11 3 -2 27 -6 54 -9 165 -23 443 -102 606 -173 30 -13 73 -32 95
-41 245 -106 585 -315 868 -535 434 -339 930 -851 1286 -1327 31 -41 58 -77
61 -80 3 -3 18 -24 34 -47 l28 -42 -78 -108 c-69 -95 -317 -409 -333 -423 -3
-3 -35 -39 -71 -80 -179 -206 -423 -457 -596 -611 -115 -103 -130 -115 -234
-200 -422 -344 -842 -584 -1255 -719 -71 -23 -137 -44 -145 -46 -59 -14 -260
-54 -298 -59 -26 -3 -63 -8 -82 -11 -120 -18 -483 -6 -610 20 -14 2 -43 7 -65
11 -119 17 -346 87 -529 161 -120 49 -381 179 -440 219 -20 14 -39 25 -43 25
-11 0 -293 191 -395 267 -89 67 -299 237 -349 283 -9 8 -62 58 -119 110 -181
167 -428 424 -591 615 -176 207 -429 530 -429 549 0 14 335 454 370 486 3 3
27 32 55 65 27 33 66 78 85 99 19 22 59 67 89 100 159 178 502 505 701 668
409 335 828 578 1235 716 159 54 366 103 500 118 33 4 85 10 115 13 71 8 270
6 385 -3z"/>
<path d="M4168 6115 c-2 -1 -50 -5 -108 -8 -97 -6 -123 -9 -190 -22 -14 -3
-38 -8 -55 -11 -16 -2 -38 -7 -47 -10 -9 -3 -27 -7 -39 -9 -93 -18 -308 -102
-429 -168 -232 -125 -452 -313 -611 -522 -179 -234 -321 -562 -363 -835 -31
-202 -29 -459 4 -659 6 -36 13 -67 15 -71 2 -4 7 -22 10 -41 3 -19 23 -86 44
-150 133 -396 394 -738 741 -970 114 -76 122 -81 220 -129 120 -59 314 -130
400 -145 18 -3 36 -8 39 -10 4 -2 25 -6 47 -9 22 -4 51 -9 64 -11 89 -19 333
-25 475 -12 346 31 690 166 970 381 108 82 186 160 210 210 42 87 34 199 -21
273 -13 17 -177 184 -364 372 -362 361 -386 380 -482 386 -73 4 -126 -15 -209
-75 -84 -61 -134 -85 -206 -98 -181 -32 -353 42 -460 198 -39 57 -73 170 -73
241 0 297 290 516 575 434 47 -13 79 -31 205 -115 62 -41 76 -45 160 -44 48 0
77 6 110 24 29 15 162 141 385 364 188 188 351 354 363 370 48 63 58 183 21
262 -47 99 -293 295 -506 403 -147 73 -391 155 -533 176 -25 4 -54 9 -65 11
-35 7 -292 23 -297 19z"/>
</g>
</svg>
